<svg xmlns="http://www.w3.org/2000/svg" version="1.1" xmlns:xlink="http://www.w3.org/1999/xlink" xmlns:svgjs="http://svgjs.com/svgjs" width="1440" height="560" preserveAspectRatio="none" viewBox="0 0 1440 560"><g mask="url(&quot;#SvgjsMask1015&quot;)" fill="none"><rect width="1440" height="560" x="0" y="0" fill="#0e2a47"></rect><rect width="312" height="312" clip-path="url(&quot;#SvgjsClipPath1016&quot;)" x="-86.52" y="11.11" fill="url(#SvgjsPattern1017)" transform="rotate(58.34, 69.48, 167.11)"></rect><path d="M273.61 417.01L280.47 406.2 292.52 410.52 299.38 399.71 311.44 404.03 318.3 393.22 330.36 397.54M276.2 424.58L283.06 413.77 295.12 418.09 301.98 407.28 314.04 411.6 320.9 400.78 332.95 405.11M278.8 432.15L285.66 421.33 297.72 425.66 304.58 414.84 316.63 419.16 323.49 408.35 335.55 412.67" stroke="#d3b714" stroke-width="2.03" stroke-dasharray="4, 4"></path><path d="M1412.8 60.01a5.6 5.6 0 1 0-10.23-4.55 5.6 5.6 0 1 0 10.23 4.55zM1398.18 53.51a5.6 5.6 0 1 0-10.23-4.55 5.6 5.6 0 1 0 10.23 4.55zM1383.57 47a5.6 5.6 0 1 0-10.24-4.55 5.6 5.6 0 1 0 10.24 4.55zM1368.95 40.5a5.6 5.6 0 1 0-10.23-4.55 5.6 5.6 0 1 0 10.23 4.55zM1448.54 58.41a5.6 5.6 0 1 0-10.23-4.56 5.6 5.6 0 1 0 10.23 4.56zM1433.92 51.9a5.6 5.6 0 1 0-10.23-4.55 5.6 5.6 0 1 0 10.23 4.55zM1419.31 45.4a5.6 5.6 0 1 0-10.24-4.56 5.6 5.6 0 1 0 10.24 4.56zM1404.69 38.89a5.6 5.6 0 1 0-10.23-4.55 5.6 5.6 0 1 0 10.23 4.55zM1484.28 56.8a5.6 5.6 0 1 0-10.23-4.55 5.6 5.6 0 1 0 10.23 4.55zM1469.67 50.29a5.6 5.6 0 1 0-10.24-4.55 5.6 5.6 0 1 0 10.24 4.55zM1455.05 43.79a5.6 5.6 0 1 0-10.23-4.55 5.6 5.6 0 1 0 10.23 4.55zM1440.43 37.28a5.6 5.6 0 1 0-10.23-4.55 5.6 5.6 0 1 0 10.23 4.55z" fill="#e73635"></path><rect width="293.76" height="293.76" clip-path="url(&quot;#SvgjsClipPath1018&quot;)" x="424.97" y="343.22" fill="url(#SvgjsPattern1019)" transform="rotate(15.65, 571.85, 490.1)"></rect><rect width="297.6" height="297.6" clip-path="url(&quot;#SvgjsClipPath1020&quot;)" x="892.87" y="290.15" fill="url(#SvgjsPattern1021)" transform="rotate(355.85, 1041.67, 438.95)"></rect><rect width="374.88" height="374.88" clip-path="url(&quot;#SvgjsClipPath1022&quot;)" x="1132.74" y="303.84" fill="url(#SvgjsPattern1023)" transform="rotate(149.2, 1320.18, 491.28)"></rect><circle r="90.65621455475117" cx="556.62" cy="7.46" stroke="#037b0b" stroke-width="1" stroke-dasharray="3, 3"></circle><rect width="108" height="108" clip-path="url(&quot;#SvgjsClipPath1024&quot;)" x="501.86" y="307.44" fill="url(#SvgjsPattern1025)" transform="rotate(279.41, 555.86, 361.44)"></rect><path d="M138.17 375.55L146.46 365.79 157.8 371.73 166.09 361.97 177.43 367.91 185.72 358.15 197.07 364.09" stroke="#d3b714" stroke-width="1" stroke-dasharray="3, 2"></path><path d="M531.94 540.07 L416.59000000000003 542.26L394.6259796422413 461.5259796422413z" fill="#d3b714"></path><path d="M1346.52 177.37a5.6 5.6 0 1 0-2.67 10.88 5.6 5.6 0 1 0 2.67-10.88zM1342.71 192.91a5.6 5.6 0 1 0-2.67 10.88 5.6 5.6 0 1 0 2.67-10.88zM1338.9 208.45a5.6 5.6 0 1 0-2.67 10.88 5.6 5.6 0 1 0 2.67-10.88zM1335.09 223.99a5.6 5.6 0 1 0-2.66 10.88 5.6 5.6 0 1 0 2.66-10.88z" stroke="#e73635" stroke-width="1.38" stroke-dasharray="3, 2"></path><rect width="259.8" height="259.8" clip-path="url(&quot;#SvgjsClipPath1026&quot;)" x="745.84" y="280.37" fill="url(#SvgjsPattern1027)" transform="rotate(208.25, 875.74, 410.27)"></rect></g><defs><mask id="SvgjsMask1015"><rect width="1440" height="560" fill="#ffffff"></rect></mask><pattern x="0" y="0" width="312" height="6" patternUnits="userSpaceOnUse" id="SvgjsPattern1017"><rect width="312" height="3" x="0" y="0" fill="#d3b714"></rect><rect width="312" height="3" x="0" y="3" fill="rgba(0, 0, 0, 0)"></rect></pattern><clipPath id="SvgjsClipPath1016"><circle r="78" cx="69.48" cy="167.11"></circle></clipPath><pattern x="0" y="0" width="8.16" height="8.16" patternUnits="userSpaceOnUse" id="SvgjsPattern1019"><path d="M4.08 1L4.08 7.16M1 4.08L7.16 4.08" stroke="#d3b714" fill="none" stroke-width="2.39"></path></pattern><clipPath id="SvgjsClipPath1018"><circle r="73.44" cx="571.85" cy="490.1"></circle></clipPath><pattern x="0" y="0" width="9.3" height="9.3" patternUnits="userSpaceOnUse" id="SvgjsPattern1021"><path d="M4.65 1L4.65 8.3M1 4.65L8.3 4.65" stroke="#d3b714" fill="none" stroke-width="2.34"></path></pattern><clipPath id="SvgjsClipPath1020"><circle r="74.4" cx="1041.67" cy="438.95"></circle></clipPath><pattern x="0" y="0" width="8.52" height="8.52" patternUnits="userSpaceOnUse" id="SvgjsPattern1023"><path d="M0 8.52L4.26 0L8.52 8.52" stroke="#d3b714" fill="none"></path></pattern><clipPath id="SvgjsClipPath1022"><circle r="93.72" cx="1320.18" cy="491.28"></circle></clipPath><pattern x="0" y="0" width="108" height="6" patternUnits="userSpaceOnUse" id="SvgjsPattern1025"><rect width="108" height="3" x="0" y="0" fill="#037b0b"></rect><rect width="108" height="3" x="0" y="3" fill="rgba(0, 0, 0, 0)"></rect></pattern><clipPath id="SvgjsClipPath1024"><circle r="27" cx="555.86" cy="361.44"></circle></clipPath><pattern x="0" y="0" width="8.66" height="8.66" patternUnits="userSpaceOnUse" id="SvgjsPattern1027"><path d="M4.33 1L4.33 7.66M1 4.33L7.66 4.33" stroke="#d3b714" fill="none" stroke-width="1.95"></path></pattern><clipPath id="SvgjsClipPath1026"><circle r="64.95" cx="875.74" cy="410.27"></circle></clipPath></defs></svg>