<svg xmlns="http://www.w3.org/2000/svg" version="1.1" xmlns:xlink="http://www.w3.org/1999/xlink" xmlns:svgjs="http://svgjs.com/svgjs" width="1440" height="560" preserveAspectRatio="none" viewBox="0 0 1440 560"><g mask="url(&quot;#SvgjsMask1059&quot;)" fill="none"><rect width="1440" height="560" x="0" y="0" fill="#0e2a47"></rect><path d="M1222.08 385.79a5.6 5.6 0 1 0 3.48 10.65 5.6 5.6 0 1 0-3.48-10.65zM1227.06 401a5.6 5.6 0 1 0 3.49 10.64 5.6 5.6 0 1 0-3.49-10.64zM1232.04 416.2a5.6 5.6 0 1 0 3.49 10.64 5.6 5.6 0 1 0-3.49-10.64zM1237.03 431.41a5.6 5.6 0 1 0 3.49 10.64 5.6 5.6 0 1 0-3.49-10.64zM1196.9 360.37a5.6 5.6 0 1 0 3.49 10.64 5.6 5.6 0 1 0-3.49-10.64zM1201.89 375.57a5.6 5.6 0 1 0 3.49 10.65 5.6 5.6 0 1 0-3.49-10.65zM1206.87 390.78a5.6 5.6 0 1 0 3.49 10.64 5.6 5.6 0 1 0-3.49-10.64zM1211.86 405.98a5.6 5.6 0 1 0 3.49 10.64 5.6 5.6 0 1 0-3.49-10.64zM1171.73 334.95a5.6 5.6 0 1 0 3.49 10.64 5.6 5.6 0 1 0-3.49-10.64zM1176.72 350.15a5.6 5.6 0 1 0 3.48 10.64 5.6 5.6 0 1 0-3.48-10.64zM1181.7 365.35a5.6 5.6 0 1 0 3.49 10.65 5.6 5.6 0 1 0-3.49-10.65zM1186.68 380.56a5.6 5.6 0 1 0 3.49 10.64 5.6 5.6 0 1 0-3.49-10.64z" stroke="#d3b714" stroke-width="1.34" stroke-dasharray="3, 3"></path><path d="M944.71 515.4a5.6 5.6 0 1 0 3.17-10.74 5.6 5.6 0 1 0-3.17 10.74zM949.24 500.05a5.6 5.6 0 1 0 3.16-10.74 5.6 5.6 0 1 0-3.16 10.74zM953.76 484.71a5.6 5.6 0 1 0 3.17-10.74 5.6 5.6 0 1 0-3.17 10.74zM958.29 469.36a5.6 5.6 0 1 0 3.16-10.74 5.6 5.6 0 1 0-3.16 10.74zM951.01 550.62a5.6 5.6 0 1 0 3.16-10.74 5.6 5.6 0 1 0-3.16 10.74zM955.53 535.27a5.6 5.6 0 1 0 3.17-10.74 5.6 5.6 0 1 0-3.17 10.74zM960.06 519.93a5.6 5.6 0 1 0 3.16-10.75 5.6 5.6 0 1 0-3.16 10.75zM964.58 504.58a5.6 5.6 0 1 0 3.17-10.74 5.6 5.6 0 1 0-3.17 10.74zM957.3 585.84a5.6 5.6 0 1 0 3.17-10.74 5.6 5.6 0 1 0-3.17 10.74zM961.83 570.49a5.6 5.6 0 1 0 3.16-10.74 5.6 5.6 0 1 0-3.16 10.74zM966.35 555.15a5.6 5.6 0 1 0 3.17-10.75 5.6 5.6 0 1 0-3.17 10.75zM970.88 539.8a5.6 5.6 0 1 0 3.17-10.74 5.6 5.6 0 1 0-3.17 10.74z" stroke="#d3b714" stroke-width="2.99" stroke-dasharray="3, 2"></path><circle r="46.666666666666664" cx="81.5" cy="531.01" stroke="#037b0b" stroke-width="1" stroke-dasharray="2, 2"></circle><path d="M354.3 10.61a5.6 5.6 0 1 0-4.25 10.36 5.6 5.6 0 1 0 4.25-10.36zM348.22 25.41a5.6 5.6 0 1 0-4.25 10.36 5.6 5.6 0 1 0 4.25-10.36zM342.14 40.21a5.6 5.6 0 1 0-4.25 10.36 5.6 5.6 0 1 0 4.25-10.36zM336.06 55.01a5.6 5.6 0 1 0-4.25 10.36 5.6 5.6 0 1 0 4.25-10.36zM351.66-25.07a5.6 5.6 0 1 0-4.26 10.36 5.6 5.6 0 1 0 4.26-10.36zM345.58-10.27a5.6 5.6 0 1 0-4.26 10.36 5.6 5.6 0 1 0 4.26-10.36zM339.5 4.53a5.6 5.6 0 1 0-4.25 10.36 5.6 5.6 0 1 0 4.25-10.36zM333.42 19.33a5.6 5.6 0 1 0-4.25 10.36 5.6 5.6 0 1 0 4.25-10.36zM349.02-60.75a5.6 5.6 0 1 0-4.26 10.36 5.6 5.6 0 1 0 4.26-10.36zM342.94-45.95a5.6 5.6 0 1 0-4.26 10.36 5.6 5.6 0 1 0 4.26-10.36zM336.86-31.15a5.6 5.6 0 1 0-4.26 10.36 5.6 5.6 0 1 0 4.26-10.36zM330.78-16.35a5.6 5.6 0 1 0-4.26 10.36 5.6 5.6 0 1 0 4.26-10.36z" stroke="#d3b714" stroke-width="2.27" stroke-dasharray="2, 2"></path><rect width="113.4" height="113.4" clip-path="url(&quot;#SvgjsClipPath1060&quot;)" x="1272.04" y="498.85" fill="url(#SvgjsPattern1061)" transform="rotate(325.89, 1328.74, 555.55)"></rect><rect width="288" height="288" clip-path="url(&quot;#SvgjsClipPath1062&quot;)" x="-8.79" y="244.52" fill="url(#SvgjsPattern1063)" transform="rotate(11.7, 135.21, 388.52)"></rect><rect width="132" height="132" clip-path="url(&quot;#SvgjsClipPath1064&quot;)" x="852.1" y="327.47" fill="url(#SvgjsPattern1065)" transform="rotate(27.66, 918.1, 393.47)"></rect><rect width="125.8" height="125.8" clip-path="url(&quot;#SvgjsClipPath1066&quot;)" x="41.06" y="37.7" fill="url(#SvgjsPattern1067)" transform="rotate(5.6, 103.96, 100.6)"></rect><rect width="94.60000000000001" height="94.60000000000001" clip-path="url(&quot;#SvgjsClipPath1068&quot;)" x="1092.35" y="405.14" fill="url(#SvgjsPattern1069)" transform="rotate(97.84, 1139.65, 452.44)"></rect><rect width="276" height="276" clip-path="url(&quot;#SvgjsClipPath1070&quot;)" x="298.81" y="183.83" fill="url(#SvgjsPattern1071)" transform="rotate(203.73, 436.81, 321.83)"></rect><path d="M826.3000000000001 679.31 L726.0600000000001 623.3L845.075599379982 582.409400620018z" stroke="#e73635" stroke-width="1.34"></path><rect width="60" height="60" clip-path="url(&quot;#SvgjsClipPath1072&quot;)" x="392.95" y="334.04" fill="url(#SvgjsPattern1073)" transform="rotate(229.36, 422.95, 364.04)"></rect></g><defs><mask id="SvgjsMask1059"><rect width="1440" height="560" fill="#ffffff"></rect></mask><pattern x="0" y="0" width="11.34" height="11.34" patternUnits="userSpaceOnUse" id="SvgjsPattern1061"><path d="M0 11.34L5.67 0L11.34 11.34" stroke="#037b0b" fill="none"></path></pattern><clipPath id="SvgjsClipPath1060"><circle r="28.35" cx="1328.74" cy="555.55"></circle></clipPath><pattern x="0" y="0" width="6" height="6" patternUnits="userSpaceOnUse" id="SvgjsPattern1063"><path d="M0 6L3 0L6 6" stroke="#d3b714" fill="none"></path></pattern><clipPath id="SvgjsClipPath1062"><circle r="72" cx="135.21" cy="388.52"></circle></clipPath><pattern x="0" y="0" width="6" height="6" patternUnits="userSpaceOnUse" id="SvgjsPattern1065"><path d="M3 1L3 5M1 3L5 3" stroke="#037b0b" fill="none" stroke-width="1.58"></path></pattern><clipPath id="SvgjsClipPath1064"><circle r="33" cx="918.1" cy="393.47"></circle></clipPath><pattern x="0" y="0" width="12.58" height="12.58" patternUnits="userSpaceOnUse" id="SvgjsPattern1067"><path d="M6.29 1L6.29 11.58M1 6.29L11.58 6.29" stroke="#e73635" fill="none" stroke-width="3.59"></path></pattern><clipPath id="SvgjsClipPath1066"><circle r="31.45" cx="103.96" cy="100.6"></circle></clipPath><pattern x="0" y="0" width="9.46" height="9.46" patternUnits="userSpaceOnUse" id="SvgjsPattern1069"><path d="M0 9.46L4.73 0L9.46 9.46" stroke="#037b0b" fill="none"></path></pattern><clipPath id="SvgjsClipPath1068"><circle r="23.650000000000002" cx="1139.65" cy="452.44"></circle></clipPath><pattern x="0" y="0" width="6" height="6" patternUnits="userSpaceOnUse" id="SvgjsPattern1071"><path d="M3 1L3 5M1 3L5 3" stroke="#d3b714" fill="none" stroke-width="1.24"></path></pattern><clipPath id="SvgjsClipPath1070"><circle r="69" cx="436.81" cy="321.83"></circle></clipPath><pattern x="0" y="0" width="60" height="6" patternUnits="userSpaceOnUse" id="SvgjsPattern1073"><rect width="60" height="3" x="0" y="0" fill="#d3b714"></rect><rect width="60" height="3" x="0" y="3" fill="rgba(0, 0, 0, 0)"></rect></pattern><clipPath id="SvgjsClipPath1072"><circle r="15" cx="422.95" cy="364.04"></circle></clipPath></defs></svg>