<svg xmlns="http://www.w3.org/2000/svg" version="1.1" xmlns:xlink="http://www.w3.org/1999/xlink" xmlns:svgjs="http://svgjs.com/svgjs" width="1440" height="560" preserveAspectRatio="none" viewBox="0 0 1440 560"><g mask="url(&quot;#SvgjsMask1000&quot;)" fill="none"><rect width="1440" height="560" x="0" y="0" fill="#0e2a47"></rect><rect width="72" height="72" clip-path="url(&quot;#SvgjsClipPath1001&quot;)" x="1180.79" y="170.1" fill="url(#SvgjsPattern1002)" transform="rotate(204.63, 1216.79, 206.1)"></rect><path d="M1015.24 166.03L1027.98 167.34 1029.5 180.05 1042.24 181.35 1043.77 194.07 1056.51 195.37 1058.03 208.09" stroke="#e73635" stroke-width="2.22" stroke-dasharray="2, 2"></path><rect width="137.6" height="137.6" clip-path="url(&quot;#SvgjsClipPath1003&quot;)" x="18.55" y="428.06" fill="url(#SvgjsPattern1004)" transform="rotate(305.98, 87.35, 496.86)"></rect><circle r="49.927052330927424" cx="1404.21" cy="74.8" fill="#d3b714"></circle><rect width="84" height="84" clip-path="url(&quot;#SvgjsClipPath1005&quot;)" x="995.75" y="40.28" fill="url(#SvgjsPattern1006)" transform="rotate(3.47, 1037.75, 82.28)"></rect><rect width="213.6" height="213.6" clip-path="url(&quot;#SvgjsClipPath1007&quot;)" x="663.78" y="48.6" fill="url(#SvgjsPattern1008)" transform="rotate(348.51, 770.58, 155.4)"></rect><path d="M904.22 8L891.57 5.96 890.79-6.82 878.15-8.87 877.37-21.65 864.73-23.69 863.94-36.47" stroke="#d3b714" stroke-width="1.41" stroke-dasharray="3, 2"></path><rect width="344.76" height="344.76" clip-path="url(&quot;#SvgjsClipPath1009&quot;)" x="868.01" y="258.64" fill="url(#SvgjsPattern1010)" transform="rotate(339.95, 1040.39, 431.02)"></rect><path d="M1037.43 235.34 L1061.18 154.55L1000.9793510964512 146.6193510964511z" stroke="#d3b714" stroke-width="1.08" stroke-dasharray="3, 3"></path><rect width="157.68" height="157.68" clip-path="url(&quot;#SvgjsClipPath1011&quot;)" x="836.57" y="79.24" fill="url(#SvgjsPattern1012)" transform="rotate(325.54, 915.41, 158.08)"></rect><rect width="135.8" height="135.8" clip-path="url(&quot;#SvgjsClipPath1013&quot;)" x="65.79" y="429.29" fill="url(#SvgjsPattern1014)" transform="rotate(156.27, 133.69, 497.19)"></rect><path d="M983.29 232.6 L916.78 315.25L876.9900320094989 200.88003200949896z" fill="#d3b714"></path></g><defs><mask id="SvgjsMask1000"><rect width="1440" height="560" fill="#ffffff"></rect></mask><pattern x="0" y="0" width="72" height="6" patternUnits="userSpaceOnUse" id="SvgjsPattern1002"><rect width="72" height="3" x="0" y="0" fill="#d3b714"></rect><rect width="72" height="3" x="0" y="3" fill="rgba(0, 0, 0, 0)"></rect></pattern><clipPath id="SvgjsClipPath1001"><circle r="18" cx="1216.79" cy="206.1"></circle></clipPath><pattern x="0" y="0" width="13.76" height="13.76" patternUnits="userSpaceOnUse" id="SvgjsPattern1004"><path d="M6.88 1L6.88 12.76M1 6.88L12.76 6.88" stroke="#d3b714" fill="none" stroke-width="4.37"></path></pattern><clipPath id="SvgjsClipPath1003"><circle r="34.4" cx="87.35" cy="496.86"></circle></clipPath><pattern x="0" y="0" width="6" height="6" patternUnits="userSpaceOnUse" id="SvgjsPattern1006"><path d="M3 1L3 5M1 3L5 3" stroke="#037b0b" fill="none" stroke-width="1.05"></path></pattern><clipPath id="SvgjsClipPath1005"><circle r="21" cx="1037.75" cy="82.28"></circle></clipPath><pattern x="0" y="0" width="8.9" height="8.9" patternUnits="userSpaceOnUse" id="SvgjsPattern1008"><path d="M4.45 1L4.45 7.9M1 4.45L7.9 4.45" stroke="#d3b714" fill="none" stroke-width="2.87"></path></pattern><clipPath id="SvgjsClipPath1007"><circle r="53.4" cx="770.58" cy="155.4"></circle></clipPath><pattern x="0" y="0" width="13.26" height="13.26" patternUnits="userSpaceOnUse" id="SvgjsPattern1010"><path d="M6.63 1L6.63 12.26M1 6.63L12.26 6.63" stroke="#d3b714" fill="none" stroke-width="2.83"></path></pattern><clipPath id="SvgjsClipPath1009"><circle r="86.19" cx="1040.39" cy="431.02"></circle></clipPath><pattern x="0" y="0" width="13.14" height="13.14" patternUnits="userSpaceOnUse" id="SvgjsPattern1012"><path d="M6.57 1L6.57 12.14M1 6.57L12.14 6.57" stroke="#037b0b" fill="none" stroke-width="4.2"></path></pattern><clipPath id="SvgjsClipPath1011"><circle r="39.42" cx="915.41" cy="158.08"></circle></clipPath><pattern x="0" y="0" width="13.58" height="13.58" patternUnits="userSpaceOnUse" id="SvgjsPattern1014"><path d="M0 13.58L6.79 0L13.58 13.58" stroke="#037b0b" fill="none"></path></pattern><clipPath id="SvgjsClipPath1013"><circle r="33.95" cx="133.69" cy="497.19"></circle></clipPath></defs></svg>