<svg xmlns="http://www.w3.org/2000/svg" version="1.1" xmlns:xlink="http://www.w3.org/1999/xlink" xmlns:svgjs="http://svgjs.com/svgjs" width="1440" height="560" preserveAspectRatio="none" viewBox="0 0 1440 560"><g mask="url(&quot;#SvgjsMask1028&quot;)" fill="none"><rect width="1440" height="560" x="0" y="0" fill="#0e2a47"></rect><path d="M552.39 97.42 L578.65 71.74000000000001L544.2752570292124 63.335257029212414z" stroke="#037b0b" stroke-width="2.43" stroke-dasharray="2, 2"></path><path d="M591.63 351.47 L653.47 391.67L663.5640473682158 330.5559526317841z" stroke="#037b0b" stroke-width="1" stroke-dasharray="3, 2"></path><path d="M1332.8500000000001 551.39 L1386.3400000000001 520.4200000000001L1389.2313935539048 565.5413935539045z" fill="#037b0b"></path><path d="M1211.71 131.65a5.6 5.6 0 1 0-10.4 4.15 5.6 5.6 0 1 0 10.4-4.15zM1196.85 137.58a5.6 5.6 0 1 0-10.4 4.15 5.6 5.6 0 1 0 10.4-4.15zM1181.99 143.51a5.6 5.6 0 1 0-10.4 4.15 5.6 5.6 0 1 0 10.4-4.15zM1167.13 149.44a5.6 5.6 0 1 0-10.4 4.15 5.6 5.6 0 1 0 10.4-4.15zM1235.51 104.93a5.6 5.6 0 1 0-10.41 4.15 5.6 5.6 0 1 0 10.41-4.15zM1220.64 110.86a5.6 5.6 0 1 0-10.4 4.15 5.6 5.6 0 1 0 10.4-4.15zM1205.78 116.79a5.6 5.6 0 1 0-10.4 4.15 5.6 5.6 0 1 0 10.4-4.15zM1190.92 122.72a5.6 5.6 0 1 0-10.4 4.15 5.6 5.6 0 1 0 10.4-4.15z" fill="#d3b714"></path><path d="M557.65 324.78a5.6 5.6 0 1 0-11.02-2.03 5.6 5.6 0 1 0 11.02 2.03zM541.91 321.88a5.6 5.6 0 1 0-11.01-2.02 5.6 5.6 0 1 0 11.01 2.02zM526.17 318.99a5.6 5.6 0 1 0-11.01-2.02 5.6 5.6 0 1 0 11.01 2.02zM510.44 316.1a5.6 5.6 0 1 0-11.02-2.03 5.6 5.6 0 1 0 11.02 2.03zM592.01 314.83a5.6 5.6 0 1 0-11.01-2.03 5.6 5.6 0 1 0 11.01 2.03zM576.28 311.94a5.6 5.6 0 1 0-11.02-2.03 5.6 5.6 0 1 0 11.02 2.03zM560.54 309.04a5.6 5.6 0 1 0-11.01-2.02 5.6 5.6 0 1 0 11.01 2.02zM544.8 306.15a5.6 5.6 0 1 0-11.01-2.03 5.6 5.6 0 1 0 11.01 2.03z" stroke="#e73635" stroke-width="1.82"></path><path d="M832.32 206.6 L857.44 280.07L809.7424443704379 278.47255562956224z" fill="#037b0b"></path><rect width="248" height="248" clip-path="url(&quot;#SvgjsClipPath1029&quot;)" x="648.7" y="121.16" fill="url(#SvgjsPattern1030)" transform="rotate(283.83, 772.7, 245.16)"></rect><path d="M791.8800000000001 349.52 L870.83 366L793.335803439615 395.779196560385z" stroke="#e73635" stroke-width="2.42" stroke-dasharray="3, 3"></path><rect width="222.4" height="222.4" clip-path="url(&quot;#SvgjsClipPath1031&quot;)" x="1044.91" y="231.94" fill="url(#SvgjsPattern1032)" transform="rotate(29.39, 1156.11, 343.14)"></rect><path d="M147.94 229.23999999999998 L200.51999999999998 330.01L127.82678521788358 326.0282147821164z" fill="#037b0b"></path><path d="M487.35 326.53a5.6 5.6 0 1 0 10.34-4.31 5.6 5.6 0 1 0-10.34 4.31zM502.12 320.37a5.6 5.6 0 1 0 10.33-4.31 5.6 5.6 0 1 0-10.33 4.31zM516.88 314.22a5.6 5.6 0 1 0 10.34-4.31 5.6 5.6 0 1 0-10.34 4.31zM531.65 308.06a5.6 5.6 0 1 0 10.34-4.31 5.6 5.6 0 1 0-10.34 4.31zM463.97 353.61a5.6 5.6 0 1 0 10.34-4.31 5.6 5.6 0 1 0-10.34 4.31zM478.74 347.45a5.6 5.6 0 1 0 10.33-4.31 5.6 5.6 0 1 0-10.33 4.31zM493.5 341.3a5.6 5.6 0 1 0 10.34-4.31 5.6 5.6 0 1 0-10.34 4.31zM508.27 335.14a5.6 5.6 0 1 0 10.34-4.31 5.6 5.6 0 1 0-10.34 4.31zM440.59 380.69a5.6 5.6 0 1 0 10.34-4.31 5.6 5.6 0 1 0-10.34 4.31zM455.36 374.53a5.6 5.6 0 1 0 10.33-4.3 5.6 5.6 0 1 0-10.33 4.3zM470.13 368.38a5.6 5.6 0 1 0 10.33-4.31 5.6 5.6 0 1 0-10.33 4.31zM484.89 362.22a5.6 5.6 0 1 0 10.34-4.31 5.6 5.6 0 1 0-10.34 4.31z" fill="#037b0b"></path><path d="M685.47 124.94 L736.64 93.03999999999999L738.7006007164316 136.6356007164315z" fill="#037b0b"></path></g><defs><mask id="SvgjsMask1028"><rect width="1440" height="560" fill="#ffffff"></rect></mask><pattern x="0" y="0" width="12.4" height="12.4" patternUnits="userSpaceOnUse" id="SvgjsPattern1030"><path d="M0 12.4L6.2 0L12.4 12.4" stroke="#037b0b" fill="none"></path></pattern><clipPath id="SvgjsClipPath1029"><circle r="62" cx="772.7" cy="245.16"></circle></clipPath><pattern x="0" y="0" width="13.9" height="13.9" patternUnits="userSpaceOnUse" id="SvgjsPattern1032"><path d="M6.95 1L6.95 12.9M1 6.95L12.9 6.95" stroke="#d3b714" fill="none" stroke-width="1"></path></pattern><clipPath id="SvgjsClipPath1031"><circle r="55.6" cx="1156.11" cy="343.14"></circle></clipPath></defs></svg>