<svg xmlns="http://www.w3.org/2000/svg" version="1.1" xmlns:xlink="http://www.w3.org/1999/xlink" xmlns:svgjs="http://svgjs.com/svgjs" width="1440" height="560" preserveAspectRatio="none" viewBox="0 0 1440 560"><g mask="url(&quot;#SvgjsMask1083&quot;)" fill="none"><rect width="1440" height="560" x="0" y="0" fill="#0e2a47"></rect><rect width="216" height="216" clip-path="url(&quot;#SvgjsClipPath1084&quot;)" x="92.87" y="414.42" fill="url(#SvgjsPattern1085)" transform="rotate(46.19, 200.87, 522.42)"></rect><rect width="348.8" height="348.8" clip-path="url(&quot;#SvgjsClipPath1086&quot;)" x="733.85" y="-132.3" fill="url(#SvgjsPattern1087)" transform="rotate(195.94, 908.25, 42.1)"></rect><rect width="115.2" height="115.2" clip-path="url(&quot;#SvgjsClipPath1088&quot;)" x="436.67" y="393.15" fill="url(#SvgjsPattern1089)" transform="rotate(174.07, 494.27, 450.75)"></rect><path d="M584.39 261.35 L518.87 273.13L505.4580804721569 221.0680804721569z" fill="#e73635"></path><rect width="212.79999999999998" height="212.79999999999998" clip-path="url(&quot;#SvgjsClipPath1090&quot;)" x="187.44" y="74.98" fill="url(#SvgjsPattern1091)" transform="rotate(335.95, 293.84, 181.38)"></rect><rect width="90.8" height="90.8" clip-path="url(&quot;#SvgjsClipPath1092&quot;)" x="1141.13" y="359.33" fill="url(#SvgjsPattern1093)" transform="rotate(334.28, 1186.53, 404.73)"></rect><path d="M849.58 136.38a5.6 5.6 0 1 0 3.43 10.66 5.6 5.6 0 1 0-3.43-10.66zM854.48 151.61a5.6 5.6 0 1 0 3.44 10.66 5.6 5.6 0 1 0-3.44-10.66zM859.39 166.84a5.6 5.6 0 1 0 3.43 10.66 5.6 5.6 0 1 0-3.43-10.66zM864.29 182.07a5.6 5.6 0 1 0 3.43 10.66 5.6 5.6 0 1 0-3.43-10.66zM824.55 110.82a5.6 5.6 0 1 0 3.43 10.66 5.6 5.6 0 1 0-3.43-10.66zM829.45 126.05a5.6 5.6 0 1 0 3.43 10.66 5.6 5.6 0 1 0-3.43-10.66zM834.35 141.28a5.6 5.6 0 1 0 3.43 10.66 5.6 5.6 0 1 0-3.43-10.66zM839.25 156.51a5.6 5.6 0 1 0 3.43 10.66 5.6 5.6 0 1 0-3.43-10.66zM799.51 85.26a5.6 5.6 0 1 0 3.44 10.66 5.6 5.6 0 1 0-3.44-10.66zM804.42 100.49a5.6 5.6 0 1 0 3.43 10.66 5.6 5.6 0 1 0-3.43-10.66zM809.32 115.72a5.6 5.6 0 1 0 3.43 10.66 5.6 5.6 0 1 0-3.43-10.66zM814.22 130.95a5.6 5.6 0 1 0 3.43 10.66 5.6 5.6 0 1 0-3.43-10.66z" stroke="#037b0b" stroke-width="2.12" stroke-dasharray="3, 2"></path><circle r="46.666666666666664" cx="1070.92" cy="105.26" fill="#037b0b"></circle><rect width="180" height="180" clip-path="url(&quot;#SvgjsClipPath1094&quot;)" x="671.66" y="255.8" fill="url(#SvgjsPattern1095)" transform="rotate(285.81, 761.66, 345.8)"></rect><circle r="86.5979061857524" cx="477.31" cy="165.3" fill="#d3b714"></circle><circle r="46.666666666666664" cx="1308.82" cy="232.85" fill="#d3b714"></circle><path d="M873.89 3.96a5.6 5.6 0 1 0-8.55-7.24 5.6 5.6 0 1 0 8.55 7.24zM861.67-6.37a5.6 5.6 0 1 0-8.55-7.24 5.6 5.6 0 1 0 8.55 7.24zM849.45-16.71a5.6 5.6 0 1 0-8.55-7.23 5.6 5.6 0 1 0 8.55 7.23zM837.24-27.04a5.6 5.6 0 1 0-8.55-7.23 5.6 5.6 0 1 0 8.55 7.23zM908.65 12.4a5.6 5.6 0 1 0-8.55-7.23 5.6 5.6 0 1 0 8.55 7.23zM896.44 2.07a5.6 5.6 0 1 0-8.55-7.23 5.6 5.6 0 1 0 8.55 7.23zM884.22-8.26a5.6 5.6 0 1 0-8.55-7.23 5.6 5.6 0 1 0 8.55 7.23zM872-18.59a5.6 5.6 0 1 0-8.55-7.23 5.6 5.6 0 1 0 8.55 7.23zM943.42 20.85a5.6 5.6 0 1 0-8.55-7.23 5.6 5.6 0 1 0 8.55 7.23zM931.2 10.52a5.6 5.6 0 1 0-8.55-7.23 5.6 5.6 0 1 0 8.55 7.23zM918.99 0.19a5.6 5.6 0 1 0-8.56-7.24 5.6 5.6 0 1 0 8.56 7.24zM906.77-10.15a5.6 5.6 0 1 0-8.55-7.23 5.6 5.6 0 1 0 8.55 7.23z" fill="#037b0b"></path></g><defs><mask id="SvgjsMask1083"><rect width="1440" height="560" fill="#ffffff"></rect></mask><pattern x="0" y="0" width="6" height="6" patternUnits="userSpaceOnUse" id="SvgjsPattern1085"><path d="M0 6L3 0L6 6" stroke="#037b0b" fill="none"></path></pattern><clipPath id="SvgjsClipPath1084"><circle r="54" cx="200.87" cy="522.42"></circle></clipPath><pattern x="0" y="0" width="10.9" height="10.9" patternUnits="userSpaceOnUse" id="SvgjsPattern1087"><path d="M0 10.9L5.45 0L10.9 10.9" stroke="#037b0b" fill="none"></path></pattern><clipPath id="SvgjsClipPath1086"><circle r="87.2" cx="908.25" cy="42.1"></circle></clipPath><pattern x="0" y="0" width="115.2" height="11.52" patternUnits="userSpaceOnUse" id="SvgjsPattern1089"><rect width="115.2" height="5.76" x="0" y="0" fill="#037b0b"></rect><rect width="115.2" height="5.76" x="0" y="5.76" fill="rgba(0, 0, 0, 0)"></rect></pattern><clipPath id="SvgjsClipPath1088"><circle r="28.8" cx="494.27" cy="450.75"></circle></clipPath><pattern x="0" y="0" width="7.6" height="7.6" patternUnits="userSpaceOnUse" id="SvgjsPattern1091"><path d="M0 7.6L3.8 0L7.6 7.6" stroke="#d3b714" fill="none"></path></pattern><clipPath id="SvgjsClipPath1090"><circle r="53.199999999999996" cx="293.84" cy="181.38"></circle></clipPath><pattern x="0" y="0" width="9.08" height="9.08" patternUnits="userSpaceOnUse" id="SvgjsPattern1093"><path d="M0 9.08L4.54 0L9.08 9.08" stroke="#037b0b" fill="none"></path></pattern><clipPath id="SvgjsClipPath1092"><circle r="22.7" cx="1186.53" cy="404.73"></circle></clipPath><pattern x="0" y="0" width="6" height="6" patternUnits="userSpaceOnUse" id="SvgjsPattern1095"><path d="M0 6L3 0L6 6" stroke="#e73635" fill="none"></path></pattern><clipPath id="SvgjsClipPath1094"><circle r="45" cx="761.66" cy="345.8"></circle></clipPath></defs></svg>