<svg xmlns="http://www.w3.org/2000/svg" version="1.1" xmlns:xlink="http://www.w3.org/1999/xlink" xmlns:svgjs="http://svgjs.com/svgjs" width="1440" height="560" preserveAspectRatio="none" viewBox="0 0 1440 560"><g mask="url(&quot;#SvgjsMask1044&quot;)" fill="none"><rect width="1440" height="560" x="0" y="0" fill="#0e2a47"></rect><path d="M558.8000000000001 649.5 L584.01 580.3399999999999L522.1879953001114 565.7029953001114z" fill="#e73635"></path><rect width="201.6" height="201.6" clip-path="url(&quot;#SvgjsClipPath1045&quot;)" x="90.37" y="294.56" fill="url(#SvgjsPattern1046)" transform="rotate(175.76, 191.17, 395.36)"></rect><circle r="58.54236517916068" cx="1435.95" cy="139.49" fill="#e73635"></circle><rect width="120" height="120" clip-path="url(&quot;#SvgjsClipPath1047&quot;)" x="1351.5" y="103.98" fill="url(#SvgjsPattern1048)" transform="rotate(191.24, 1411.5, 163.98)"></rect><path d="M1072.82 133.37L1069.38 121.03 1080.65 114.96 1077.2 102.63 1088.48 96.56 1085.03 84.22 1096.31 78.15M1080.19 136.5L1076.74 124.16 1088.01 118.09 1084.57 105.76 1095.84 99.69 1092.39 87.35 1103.67 81.28" stroke="#037b0b" stroke-width="1" stroke-dasharray="4, 4"></path><path d="M1126.01 231.53a5.6 5.6 0 1 0-7.91-7.93 5.6 5.6 0 1 0 7.91 7.93zM1114.71 220.2a5.6 5.6 0 1 0-7.91-7.92 5.6 5.6 0 1 0 7.91 7.92zM1103.41 208.88a5.6 5.6 0 1 0-7.91-7.93 5.6 5.6 0 1 0 7.91 7.93zM1092.11 197.55a5.6 5.6 0 1 0-7.91-7.92 5.6 5.6 0 1 0 7.91 7.92zM1159.94 242.88a5.6 5.6 0 1 0-7.91-7.93 5.6 5.6 0 1 0 7.91 7.93zM1148.64 231.55a5.6 5.6 0 1 0-7.91-7.92 5.6 5.6 0 1 0 7.91 7.92zM1137.34 220.23a5.6 5.6 0 1 0-7.91-7.93 5.6 5.6 0 1 0 7.91 7.93zM1126.04 208.9a5.6 5.6 0 1 0-7.92-7.93 5.6 5.6 0 1 0 7.92 7.93zM1193.87 254.23a5.6 5.6 0 1 0-7.91-7.93 5.6 5.6 0 1 0 7.91 7.93zM1182.57 242.9a5.6 5.6 0 1 0-7.91-7.92 5.6 5.6 0 1 0 7.91 7.92zM1171.27 231.58a5.6 5.6 0 1 0-7.91-7.93 5.6 5.6 0 1 0 7.91 7.93zM1159.97 220.25a5.6 5.6 0 1 0-7.92-7.93 5.6 5.6 0 1 0 7.92 7.93z" stroke="#037b0b" stroke-width="2.22" stroke-dasharray="2, 2"></path><rect width="72" height="72" clip-path="url(&quot;#SvgjsClipPath1049&quot;)" x="332.84" y="206.74" fill="url(#SvgjsPattern1050)" transform="rotate(226.74, 368.84, 242.74)"></rect><path d="M420.36 651.81 L288.39 497.57L435.3019926843164 493.7630073156835z" fill="#d3b714"></path><rect width="192" height="192" clip-path="url(&quot;#SvgjsClipPath1051&quot;)" x="1287.63" y="-87" fill="url(#SvgjsPattern1052)" transform="rotate(65.87, 1383.63, 9)"></rect><rect width="362.03999999999996" height="362.03999999999996" clip-path="url(&quot;#SvgjsClipPath1053&quot;)" x="550.32" y="-162.84" fill="url(#SvgjsPattern1054)" transform="rotate(35.98, 731.34, 18.18)"></rect><rect width="60" height="60" clip-path="url(&quot;#SvgjsClipPath1055&quot;)" x="1317.44" y="200.93" fill="url(#SvgjsPattern1056)" transform="rotate(98.63, 1347.44, 230.93)"></rect><rect width="60" height="60" clip-path="url(&quot;#SvgjsClipPath1057&quot;)" x="1088.67" y="282.01" fill="url(#SvgjsPattern1058)" transform="rotate(224.76, 1118.67, 312.01)"></rect></g><defs><mask id="SvgjsMask1044"><rect width="1440" height="560" fill="#ffffff"></rect></mask><pattern x="0" y="0" width="10.08" height="10.08" patternUnits="userSpaceOnUse" id="SvgjsPattern1046"><path d="M5.04 1L5.04 9.08M1 5.04L9.08 5.04" stroke="#037b0b" fill="none" stroke-width="1"></path></pattern><clipPath id="SvgjsClipPath1045"><circle r="50.4" cx="191.17" cy="395.36"></circle></clipPath><pattern x="0" y="0" width="120" height="6" patternUnits="userSpaceOnUse" id="SvgjsPattern1048"><rect width="120" height="3" x="0" y="0" fill="#d3b714"></rect><rect width="120" height="3" x="0" y="3" fill="rgba(0, 0, 0, 0)"></rect></pattern><clipPath id="SvgjsClipPath1047"><circle r="30" cx="1411.5" cy="163.98"></circle></clipPath><pattern x="0" y="0" width="6" height="6" patternUnits="userSpaceOnUse" id="SvgjsPattern1050"><path d="M0 6L3 0L6 6" stroke="#037b0b" fill="none"></path></pattern><clipPath id="SvgjsClipPath1049"><circle r="18" cx="368.84" cy="242.74"></circle></clipPath><pattern x="0" y="0" width="192" height="6" patternUnits="userSpaceOnUse" id="SvgjsPattern1052"><rect width="192" height="3" x="0" y="0" fill="#037b0b"></rect><rect width="192" height="3" x="0" y="3" fill="rgba(0, 0, 0, 0)"></rect></pattern><clipPath id="SvgjsClipPath1051"><circle r="48" cx="1383.63" cy="9"></circle></clipPath><pattern x="0" y="0" width="8.62" height="8.62" patternUnits="userSpaceOnUse" id="SvgjsPattern1054"><path d="M0 8.62L4.31 0L8.62 8.62" stroke="#e73635" fill="none"></path></pattern><clipPath id="SvgjsClipPath1053"><circle r="90.50999999999999" cx="731.34" cy="18.18"></circle></clipPath><pattern x="0" y="0" width="6" height="6" patternUnits="userSpaceOnUse" id="SvgjsPattern1056"><path d="M0 6L3 0L6 6" stroke="#d3b714" fill="none"></path></pattern><clipPath id="SvgjsClipPath1055"><circle r="15" cx="1347.44" cy="230.93"></circle></clipPath><pattern x="0" y="0" width="6" height="6" patternUnits="userSpaceOnUse" id="SvgjsPattern1058"><path d="M3 1L3 5M1 3L5 3" stroke="#d3b714" fill="none" stroke-width="1"></path></pattern><clipPath id="SvgjsClipPath1057"><circle r="15" cx="1118.67" cy="312.01"></circle></clipPath></defs></svg>