<svg xmlns="http://www.w3.org/2000/svg" version="1.1" xmlns:xlink="http://www.w3.org/1999/xlink" xmlns:svgjs="http://svgjs.com/svgjs" width="1440" height="560" preserveAspectRatio="none" viewBox="0 0 1440 560"><g mask="url(&quot;#SvgjsMask1096&quot;)" fill="none"><rect width="1440" height="560" x="0" y="0" fill="#0e2a47"></rect><circle r="81.84583640271562" cx="611.53" cy="268.75" stroke="#d3b714" stroke-width="1.83" stroke-dasharray="3, 3"></circle><path d="M677.82 154.2L671.81 165.51 659.46 162.13 653.45 173.45 641.1 170.07 635.09 181.38 622.74 178" stroke="#d3b714" stroke-width="2.32" stroke-dasharray="2, 2"></path><path d="M1210.27 334.62 L1197.6299999999999 340.97L1198.7695929935874 332.61459299358756z" stroke="#d3b714" stroke-width="1" stroke-dasharray="3, 3"></path><circle r="46.666666666666664" cx="904.03" cy="249.96" stroke="#037b0b" stroke-width="2.3" stroke-dasharray="2, 2"></circle><rect width="353.36" height="353.36" clip-path="url(&quot;#SvgjsClipPath1097&quot;)" x="583.48" y="133.38" fill="url(#SvgjsPattern1098)" transform="rotate(212.4, 760.16, 310.06)"></rect><rect width="270.64" height="270.64" clip-path="url(&quot;#SvgjsClipPath1099&quot;)" x="-114.73" y="270.01" fill="url(#SvgjsPattern1100)" transform="rotate(79.18, 20.59, 405.33)"></rect><path d="M334.26 185.95999999999998 L370.84 261.73L407.74663329646336 168.64836670353662z" fill="#037b0b"></path><path d="M71.46 35.83L81.11 44.24 75.02 55.51 84.67 63.92 78.58 75.19 88.24 83.6 82.14 94.87M63.59 37.25L73.24 45.67 67.15 56.93 76.8 65.35 70.71 76.61 80.36 85.03 74.27 96.29" stroke="#e73635" stroke-width="1" stroke-dasharray="3, 3"></path><path d="M83.98 463.69a5.6 5.6 0 1 0 6.7-8.98 5.6 5.6 0 1 0-6.7 8.98zM93.55 450.86a5.6 5.6 0 1 0 6.69-8.97 5.6 5.6 0 1 0-6.69 8.97zM103.11 438.04a5.6 5.6 0 1 0 6.7-8.98 5.6 5.6 0 1 0-6.7 8.98zM112.68 425.21a5.6 5.6 0 1 0 6.7-8.97 5.6 5.6 0 1 0-6.7 8.97zM77.67 498.91a5.6 5.6 0 1 0 6.7-8.98 5.6 5.6 0 1 0-6.7 8.98zM87.24 486.08a5.6 5.6 0 1 0 6.69-8.98 5.6 5.6 0 1 0-6.69 8.98zM96.8 473.26a5.6 5.6 0 1 0 6.7-8.98 5.6 5.6 0 1 0-6.7 8.98zM106.37 460.43a5.6 5.6 0 1 0 6.7-8.98 5.6 5.6 0 1 0-6.7 8.98zM71.36 534.12a5.6 5.6 0 1 0 6.7-8.97 5.6 5.6 0 1 0-6.7 8.97zM80.93 521.3a5.6 5.6 0 1 0 6.7-8.98 5.6 5.6 0 1 0-6.7 8.98zM90.5 508.47a5.6 5.6 0 1 0 6.69-8.98 5.6 5.6 0 1 0-6.69 8.98zM100.06 495.65a5.6 5.6 0 1 0 6.7-8.98 5.6 5.6 0 1 0-6.7 8.98z" stroke="#037b0b" stroke-width="1.81"></path><path d="M1322.3700000000001 251.70000000000002 L1425.39 254.9L1426.1523090540418 201.02769094595845z" fill="#d3b714"></path><path d="M729.64 181.14000000000001 L644.3199999999999 181.57L654.4464772982028 148.82147729820278z" fill="#d3b714"></path><rect width="230.79999999999998" height="230.79999999999998" clip-path="url(&quot;#SvgjsClipPath1101&quot;)" x="398.14" y="375.24" fill="url(#SvgjsPattern1102)" transform="rotate(213.77, 513.54, 490.64)"></rect></g><defs><mask id="SvgjsMask1096"><rect width="1440" height="560" fill="#ffffff"></rect></mask><pattern x="0" y="0" width="12.62" height="12.62" patternUnits="userSpaceOnUse" id="SvgjsPattern1098"><path d="M6.31 1L6.31 11.62M1 6.31L11.62 6.31" stroke="#d3b714" fill="none" stroke-width="2.21"></path></pattern><clipPath id="SvgjsClipPath1097"><circle r="88.34" cx="760.16" cy="310.06"></circle></clipPath><pattern x="0" y="0" width="270.64" height="7.96" patternUnits="userSpaceOnUse" id="SvgjsPattern1100"><rect width="270.64" height="3.98" x="0" y="0" fill="#d3b714"></rect><rect width="270.64" height="3.98" x="0" y="3.98" fill="rgba(0, 0, 0, 0)"></rect></pattern><clipPath id="SvgjsClipPath1099"><circle r="67.66" cx="20.59" cy="405.33"></circle></clipPath><pattern x="0" y="0" width="11.54" height="11.54" patternUnits="userSpaceOnUse" id="SvgjsPattern1102"><path d="M0 11.54L5.77 0L11.54 11.54" stroke="#037b0b" fill="none"></path></pattern><clipPath id="SvgjsClipPath1101"><circle r="57.699999999999996" cx="513.54" cy="490.64"></circle></clipPath></defs></svg>