<svg xmlns="http://www.w3.org/2000/svg" version="1.1" xmlns:xlink="http://www.w3.org/1999/xlink" xmlns:svgjs="http://svgjs.com/svgjs" width="1440" height="560" preserveAspectRatio="none" viewBox="0 0 1440 560"><g mask="url(&quot;#SvgjsMask1103&quot;)" fill="none"><rect width="1440" height="560" x="0" y="0" fill="#0e2a47"></rect><circle r="46.666666666666664" cx="31.35" cy="47.44" fill="#037b0b"></circle><rect width="60" height="60" clip-path="url(&quot;#SvgjsClipPath1104&quot;)" x="99.83" y="-9.97" fill="url(#SvgjsPattern1105)" transform="rotate(22.74, 129.83, 20.03)"></rect><circle r="46.666666666666664" cx="672.54" cy="235.1" fill="#037b0b"></circle><path d="M1289.36 57.16a5.6 5.6 0 1 0 3.22 10.73 5.6 5.6 0 1 0-3.22-10.73zM1293.97 72.49a5.6 5.6 0 1 0 3.22 10.72 5.6 5.6 0 1 0-3.22-10.72zM1298.57 87.81a5.6 5.6 0 1 0 3.23 10.72 5.6 5.6 0 1 0-3.23-10.72zM1303.18 103.13a5.6 5.6 0 1 0 3.23 10.73 5.6 5.6 0 1 0-3.23-10.73z" fill="#037b0b"></path><path d="M1149.13 448.35a5.6 5.6 0 1 0-6.4-9.19 5.6 5.6 0 1 0 6.4 9.19zM1139.98 435.22a5.6 5.6 0 1 0-6.39-9.2 5.6 5.6 0 1 0 6.39 9.2zM1130.84 422.08a5.6 5.6 0 1 0-6.39-9.19 5.6 5.6 0 1 0 6.39 9.19zM1121.7 408.95a5.6 5.6 0 1 0-6.39-9.19 5.6 5.6 0 1 0 6.39 9.19zM1180.54 465.47a5.6 5.6 0 1 0-6.4-9.19 5.6 5.6 0 1 0 6.4 9.19zM1171.4 452.34a5.6 5.6 0 1 0-6.4-9.19 5.6 5.6 0 1 0 6.4 9.19zM1162.26 439.21a5.6 5.6 0 1 0-6.4-9.19 5.6 5.6 0 1 0 6.4 9.19zM1153.12 426.08a5.6 5.6 0 1 0-6.4-9.2 5.6 5.6 0 1 0 6.4 9.2zM1211.95 482.59a5.6 5.6 0 1 0-6.4-9.19 5.6 5.6 0 1 0 6.4 9.19zM1202.81 469.46a5.6 5.6 0 1 0-6.4-9.19 5.6 5.6 0 1 0 6.4 9.19zM1193.67 456.33a5.6 5.6 0 1 0-6.4-9.19 5.6 5.6 0 1 0 6.4 9.19zM1184.53 443.2a5.6 5.6 0 1 0-6.4-9.19 5.6 5.6 0 1 0 6.4 9.19z" fill="#e73635"></path><path d="M655.6 455.2L662.04 444.13 674.25 448 680.7 436.93 692.91 440.8 699.36 429.73 711.57 433.6M658.48 462.66L664.92 451.6 677.13 455.46 683.58 444.4 695.79 448.26 702.24 437.2 714.45 441.06M661.36 470.13L667.8 459.06 680.01 462.93 686.46 451.86 698.67 455.73 705.12 444.66 717.33 448.53" stroke="#037b0b" stroke-width="1.93" stroke-dasharray="2, 2"></path><path d="M11.26 244.83L-1.44 243.18-2.62 230.43-15.32 228.79-16.5 216.04-29.2 214.39-30.38 201.64" stroke="#037b0b" stroke-width="2.03"></path><rect width="66.6" height="66.6" clip-path="url(&quot;#SvgjsClipPath1106&quot;)" x="141.88" y="-12.22" fill="url(#SvgjsPattern1107)" transform="rotate(59.26, 175.18, 21.08)"></rect><rect width="205.12" height="205.12" clip-path="url(&quot;#SvgjsClipPath1108&quot;)" x="813.53" y="434.61" fill="url(#SvgjsPattern1109)" transform="rotate(103.08, 916.09, 537.17)"></rect><path d="M318.55 408.24L327.29 417.61 320.07 428.18 328.8 437.55 321.58 448.13 330.32 457.49 323.1 468.07" stroke="#d3b714" stroke-width="2.07" stroke-dasharray="2, 2"></path><circle r="52.755772981591846" cx="1068.92" cy="282.36" fill="#e73635"></circle><path d="M59.73 499.93L48.06 494.67 50.63 482.12 38.95 476.86 41.52 464.31 29.85 459.05 32.42 446.51" stroke="#d3b714" stroke-width="2.08" stroke-dasharray="2, 2"></path></g><defs><mask id="SvgjsMask1103"><rect width="1440" height="560" fill="#ffffff"></rect></mask><pattern x="0" y="0" width="6" height="6" patternUnits="userSpaceOnUse" id="SvgjsPattern1105"><path d="M3 1L3 5M1 3L5 3" stroke="#037b0b" fill="none" stroke-width="1.34"></path></pattern><clipPath id="SvgjsClipPath1104"><circle r="15" cx="129.83" cy="20.03"></circle></clipPath><pattern x="0" y="0" width="6.66" height="6.66" patternUnits="userSpaceOnUse" id="SvgjsPattern1107"><path d="M3.33 1L3.33 5.66M1 3.33L5.66 3.33" stroke="#e73635" fill="none" stroke-width="1"></path></pattern><clipPath id="SvgjsClipPath1106"><circle r="16.65" cx="175.18" cy="21.08"></circle></clipPath><pattern x="0" y="0" width="12.82" height="12.82" patternUnits="userSpaceOnUse" id="SvgjsPattern1109"><path d="M0 12.82L6.41 0L12.82 12.82" stroke="#e73635" fill="none"></path></pattern><clipPath id="SvgjsClipPath1108"><circle r="51.28" cx="916.09" cy="537.17"></circle></clipPath></defs></svg>