<svg xmlns="http://www.w3.org/2000/svg" version="1.1" xmlns:xlink="http://www.w3.org/1999/xlink" xmlns:svgjs="http://svgjs.com/svgjs" width="1440" height="560" preserveAspectRatio="none" viewBox="0 0 1440 560"><g mask="url(&quot;#SvgjsMask1074&quot;)" fill="none"><rect width="1440" height="560" x="0" y="0" fill="#0e2a47"></rect><path d="M976.68 396.08a5.6 5.6 0 1 0-5.29-9.88 5.6 5.6 0 1 0 5.29 9.88zM969.12 381.97a5.6 5.6 0 1 0-5.29-9.87 5.6 5.6 0 1 0 5.29 9.87zM961.57 367.87a5.6 5.6 0 1 0-5.29-9.87 5.6 5.6 0 1 0 5.29 9.87zM954.01 353.77a5.6 5.6 0 1 0-5.29-9.88 5.6 5.6 0 1 0 5.29 9.88zM1005.89 416.73a5.6 5.6 0 1 0-5.29-9.88 5.6 5.6 0 1 0 5.29 9.88zM998.34 402.62a5.6 5.6 0 1 0-5.29-9.87 5.6 5.6 0 1 0 5.29 9.87zM990.78 388.52a5.6 5.6 0 1 0-5.29-9.87 5.6 5.6 0 1 0 5.29 9.87zM983.23 374.42a5.6 5.6 0 1 0-5.29-9.88 5.6 5.6 0 1 0 5.29 9.88z" fill="#e73635"></path><circle r="46.666666666666664" cx="587.03" cy="195.93" stroke="#e73635" stroke-width="2.67" stroke-dasharray="3, 2"></circle><circle r="46.666666666666664" cx="36.78" cy="92.69" stroke="#e73635" stroke-width="1.27" stroke-dasharray="3, 3"></circle><rect width="372" height="372" clip-path="url(&quot;#SvgjsClipPath1075&quot;)" x="246.65" y="345.56" fill="url(#SvgjsPattern1076)" transform="rotate(101.8, 432.65, 531.56)"></rect><rect width="108" height="108" clip-path="url(&quot;#SvgjsClipPath1077&quot;)" x="1352.55" y="3" fill="url(#SvgjsPattern1078)" transform="rotate(84.41, 1406.55, 57)"></rect><path d="M693.55 208.55L694.46 195.78 707.12 193.87 708.04 181.09 720.7 179.18 721.61 166.4 734.27 164.49" stroke="#e73635" stroke-width="1.26" stroke-dasharray="3, 3"></path><rect width="84" height="84" clip-path="url(&quot;#SvgjsClipPath1079&quot;)" x="1317.52" y="197.8" fill="url(#SvgjsPattern1080)" transform="rotate(77.93, 1359.52, 239.8)"></rect><path d="M726.48 410.15999999999997 L733.34 302.4L668.386005610504 294.7560056105039z" stroke="#037b0b" stroke-width="1" stroke-dasharray="2, 2"></path><rect width="324" height="324" clip-path="url(&quot;#SvgjsClipPath1081&quot;)" x="927.22" y="-116.43" fill="url(#SvgjsPattern1082)" transform="rotate(18.09, 1089.22, 45.57)"></rect><path d="M150.1 74.45L149.21 87.23 136.55 89.17 135.66 101.94 123.01 103.88 122.12 116.65 109.46 118.59" stroke="#037b0b" stroke-width="1.84"></path><path d="M966.11 302.08 L1024.8600000000001 297.39L1017.3772398629175 321.62723986291735z" stroke="#d3b714" stroke-width="1" stroke-dasharray="3, 2"></path><circle r="66.74577256919828" cx="937.98" cy="307.43" fill="#e73635"></circle></g><defs><mask id="SvgjsMask1074"><rect width="1440" height="560" fill="#ffffff"></rect></mask><pattern x="0" y="0" width="6" height="6" patternUnits="userSpaceOnUse" id="SvgjsPattern1076"><path d="M3 1L3 5M1 3L5 3" stroke="#d3b714" fill="none" stroke-width="1"></path></pattern><clipPath id="SvgjsClipPath1075"><circle r="93" cx="432.65" cy="531.56"></circle></clipPath><pattern x="0" y="0" width="6" height="6" patternUnits="userSpaceOnUse" id="SvgjsPattern1078"><path d="M3 1L3 5M1 3L5 3" stroke="#d3b714" fill="none" stroke-width="1.22"></path></pattern><clipPath id="SvgjsClipPath1077"><circle r="27" cx="1406.55" cy="57"></circle></clipPath><pattern x="0" y="0" width="6" height="6" patternUnits="userSpaceOnUse" id="SvgjsPattern1080"><path d="M0 6L3 0L6 6" stroke="#037b0b" fill="none"></path></pattern><clipPath id="SvgjsClipPath1079"><circle r="21" cx="1359.52" cy="239.8"></circle></clipPath><pattern x="0" y="0" width="6" height="6" patternUnits="userSpaceOnUse" id="SvgjsPattern1082"><path d="M3 1L3 5M1 3L5 3" stroke="#e73635" fill="none" stroke-width="1"></path></pattern><clipPath id="SvgjsClipPath1081"><circle r="81" cx="1089.22" cy="45.57"></circle></clipPath></defs></svg>